<?xml version="1.0" encoding="UTF-8"?>
<!DOCTYPE svg PUBLIC "-//W3C//DTD SVG 1.1//EN" "http://www.w3.org/Graphics/SVG/1.1/DTD/svg11.dtd">
<!-- Creator: CorelDRAW -->
<svg xmlns="http://www.w3.org/2000/svg" xml:space="preserve" width="6.82666in" height="6.82666in" style="shape-rendering:geometricPrecision; text-rendering:geometricPrecision; image-rendering:optimizeQuality; fill-rule:evenodd; clip-rule:evenodd"
viewBox="0 0 6.82666 6.82666"
 xmlns:xlink="http://www.w3.org/1999/xlink">
 <defs>
  <style type="text/css">
   <![CDATA[
    .fil2 {fill:none}
    .fil0 {fill:#424242}
    .fil1 {fill:#FFFFFE;fill-rule:nonzero}
   ]]>
  </style>
 </defs>
 <rect class="fil0" width="6.82666" height="6.82666"/>
 <g id="Layer_x0020_1">
  <metadata id="CorelCorpID_0Corel-Layer"/>
  <path class="fil1" d="M4.16832 1.11117l-0.156106 0.60774 0.00015748 3.14961e-005c-0.0358228,0.180213 -0.0419882,0.365992 -0.0195906,0.54852 0.0224724,0.183165 0.0733268,0.362295 0.151441,0.528528 0.019248,0.0409685 0.0315866,0.083685 0.0368346,0.126913 0.00526378,0.0433228 0.00362992,0.0874921 -0.0050748,0.131252 -0.0108346,0.0544724 -0.032185,0.105598 -0.0625906,0.151122 -0.0300591,0.0450197 -0.068937,0.0840748 -0.115161,0.114949 -0.046752,0.0312913 -0.0977756,0.0524488 -0.150484,0.0629488 -0.0531181,0.0105787 -0.108248,0.0106929 -0.162787,-0.000149606 -0.0725,-0.0144094 -0.138146,-0.0469764 -0.192134,-0.0935787 -0.0534882,-0.0461654 -0.0951102,-0.106201 -0.12013,-0.176016l-0.000417323 0c-0.000476378,-0.00133465 -0.00106299,-0.00231102 -0.00168898,-0.00285039 -0.000515748,-0.000444882 -0.00137795,-0.000811024 -0.00251181,-0.00103543l-0.000417323 0c-0.00146063,-0.000291339 -0.00242126,-0.000370079 -0.00282283,-0.000255906 -0.000889764,0.000255906 -0.00177953,0.000779528 -0.00256693,0.00152362l-0.000417323 0.000417323c-0.000425197,0.000401575 -0.000173228,0.000122047 -3.14961e-005,-3.14961e-005l-7.87402e-006 -7.87402e-006 -0.000122047 0.000125984c-0.000779528,0.000787402 -0.00046063,0.000377953 -8.26772e-005,-8.26772e-005l-3.93701e-005 -3.54331e-005c-0.0499567,0.0552165 -0.111429,0.0949094 -0.178402,0.117094 -0.0672283,0.0222677 -0.140051,0.0271969 -0.212433,0.0128228l-0.000106299 -5.51181e-005 -7.87402e-006 3.14961e-005c-0.113004,-0.0224803 -0.206374,-0.0888307 -0.265874,-0.177803 -0.0595591,-0.0890591 -0.0852835,-0.200512 -0.062937,-0.313055l5.51181e-005 -0.000106299 -3.14961e-005 -7.87402e-006c0.00877165,-0.0442677 0.0241142,-0.0860276 0.0457126,-0.124343 0.0212402,-0.0376969 0.0489291,-0.072315 0.0827323,-0.102949l-0.000188976 -0.000204724c0.138677,-0.12637 0.253937,-0.27085 0.343272,-0.428972 0.0893701,-0.158189 0.153547,-0.331311 0.190024,-0.514882l0.00166535 -0.00583465 0.155976 -0.607138 0 -0.00107874c0.00743701,-0.0372126 0.0294685,-0.0679921 0.0589488,-0.087685 0.0296181,-0.0197677 0.0664646,-0.0283228 0.103346,-0.0210079l0 7.87402e-006 4.33071e-005 0 0.437421 0.0868858 0.000417323 0c0.0371457,0.00740551 0.0679764,0.0294173 0.0877559,0.0589646 0.0197835,0.0295827 0.0283858,0.0664213 0.0210276,0.103453l-0.00166535 0.00583465zm-0.363449 0.561102l0.137575 -0.535583 -0.291146 -0.0578307 -0.138909 0.540713 0.00015748 3.14961e-005c-0.0406772,0.204709 -0.113016,0.399134 -0.214189,0.578213 -0.10115,0.179039 -0.230409,0.341496 -0.384941,0.482311l-0.000413386 0c-0.0157795,0.0142795 -0.0290472,0.0310433 -0.039626,0.049815 -0.0105472,0.0187087 -0.018063,0.0392047 -0.0223819,0.0610118l-5.51181e-005 0.000106299 3.14961e-005 7.87402e-006c-0.0110591,0.0557047 0.00140157,0.110469 0.0304409,0.15389 0.0291024,0.0435157 0.0747756,0.0759764 0.130039,0.0869685l0.000106299 5.51181e-005 7.87402e-006 -3.14961e-005c0.0359685,0.00714173 0.0719331,0.00476378 0.104929,-0.00616142 0.0331969,-0.0109961 0.0633937,-0.0303701 0.0875984,-0.0571299 0.00379528,-0.00420079 0.00558268,-0.00616142 0.0059252,-0.00650787 0.00269685,-0.00272835 0.00464173,-0.00464567 0.00599606,-0.00592126l1.1811e-005 1.1811e-005c0.0256496,-0.0241732 0.0564685,-0.0415394 0.0896417,-0.0511181 0.0336496,-0.00972047 0.0691535,-0.011622 0.103657,-0.00474409l-1.5748e-005 8.26772e-005c0.0375906,0.00752362 0.0720236,0.0247717 0.100441,0.0492835 0.0284134,0.0245079 0.0504921,0.0560079 0.0633583,0.0920157l-0.000370079 0.000133858c0.0123425,0.034374 0.032874,0.0639488 0.059248,0.0867165 0.0259291,0.0223819 0.0579724,0.038126 0.0938031,0.045248 0.0270236,0.00537008 0.0542165,0.00533858 0.0802835,0.000149606 0.0264488,-0.00526772 0.0514961,-0.0155079 0.0738228,-0.0304528 0.0228937,-0.0152913 0.0420748,-0.0345236 0.0568228,-0.0566102 0.014437,-0.0216181 0.0247047,-0.0465197 0.0300945,-0.073626 0.00435433,-0.0218937 0.00518504,-0.0439134 0.00257087,-0.0654173 -0.00262992,-0.0216535 -0.00855118,-0.0425039 -0.0176693,-0.0619134 -0.0882992,-0.187909 -0.145587,-0.388764 -0.170606,-0.592693 -0.0250866,-0.204461 -0.0181339,-0.412815 0.0220945,-0.615189l0.00166535 -0.00583465zm-0.442772 1.43836l-7.87402e-006 -1.1811e-005 -0.000397638 0.000437008 2.75591e-005 3.14961e-005 0.000377953 -0.000456693zm-7.87402e-006 -1.1811e-005l7.87402e-006 1.1811e-005c6.29921e-005,-7.87402e-005 7.48031e-005,-9.84252e-005 -7.87402e-006,-1.1811e-005zm-0.000271654 0.000574803c7.48031e-005,-8.26772e-005 0.000114173,-0.000129921 -7.87402e-006,-7.87402e-006l7.87402e-006 7.87402e-006zm-0.000125984 -0.000137795l2.75591e-005 3.14961e-005 -0.000114173 0.000141732 -3.93701e-005 -3.54331e-005 3.14961e-005 -3.54331e-005 9.44882e-005 -0.000102362z"/>
  <path class="fil1" d="M4.11407 4.11228c-0.110953,0.150465 -0.195815,0.314894 -0.252976,0.488445 -0.0569961,0.173043 -0.0862913,0.355283 -0.0862913,0.541894l0 0.69222c0,0.0382402 -0.0155512,0.0728622 -0.0405827,0.0978937 -0.0250748,0.0250748 -0.059752,0.0405945 -0.0979055,0.0405945l-0.445972 0c-0.0382244,0 -0.0728504,-0.0155118 -0.0979134,-0.0405748 -0.025063,-0.025063 -0.0405748,-0.059689 -0.0405748,-0.0979134l0 -0.69222c0,-0.183783 -0.0301142,-0.367083 -0.0875551,-0.541461 -0.0576063,-0.174886 -0.142445,-0.340642 -0.251713,-0.488799 -0.0264961,-0.035937 -0.0468071,-0.0754291 -0.0605354,-0.117287 -0.0137559,-0.0419528 -0.0208346,-0.0857402 -0.0208346,-0.130177 0,-0.11528 0.0468701,-0.219795 0.122539,-0.295465 0.0756732,-0.0756693 0.180189,-0.122539 0.295469,-0.122539 0.0735866,0 0.144157,0.0191732 0.206228,0.0543937 0.0616299,0.0349764 0.114228,0.085815 0.15235,0.149402 0.000543307,0.000905512 0.0013937,0.00169291 0.00242126,0.00227559 0.000582677,0.000330709 0.00165748,0.000515748 0.00314173,0.000515748 0.00145669,0 0.00251575,-0.000185039 0.00309055,-0.000507874 0.001,-0.000566929 0.00184252,-0.00135827 0.00239764,-0.00228346 0.038122,-0.0635866 0.0907205,-0.114425 0.15235,-0.149402 0.0620709,-0.0352205 0.132642,-0.0543937 0.206228,-0.0543937 0.11528,0 0.219799,0.0468701 0.295469,0.122539 0.0756693,0.0756693 0.122539,0.180185 0.122539,0.295465 0,0.0444331 -0.0070748,0.0882008 -0.0208307,0.130126 -0.0137362,0.0418543 -0.0340472,0.0813268 -0.0605394,0.11726zm-0.45548 0.421776c0.0639843,-0.194264 0.159189,-0.378606 0.283811,-0.54761 0.0131063,-0.0177756 0.0230748,-0.0370551 0.0297047,-0.0572598 0.00659843,-0.0201142 0.00999606,-0.0417362 0.00999606,-0.0642913 0,-0.0563976 -0.0229646,-0.107559 -0.0600354,-0.14463 -0.0370709,-0.0370709 -0.0882362,-0.0600354 -0.144634,-0.0600354 -0.036878,0 -0.0715,0.00918504 -0.101228,0.0260551 -0.0301772,0.017126 -0.0560197,0.0421575 -0.0748465,0.0735669 -0.0197953,0.0330827 -0.0475236,0.0597559 -0.0799016,0.0781181 -0.0327717,0.0185906 -0.0699134,0.0288465 -0.108091,0.0288465 -0.0381654,0 -0.0753346,-0.0102559 -0.108142,-0.0288543 -0.0323819,-0.0183504 -0.060126,-0.0450157 -0.0799252,-0.0781102 -0.0188268,-0.0314094 -0.0446693,-0.0564409 -0.0748465,-0.0735669 -0.0297283,-0.0168701 -0.0643504,-0.0260551 -0.101228,-0.0260551 -0.0563937,0 -0.107559,0.0229646 -0.144634,0.0600354 -0.0370709,0.0370709 -0.0600354,0.0882362 -0.0600354,0.14463 0,0.0225669 0.00339764,0.0442047 0.01,0.0643425 0.00663386,0.0202283 0.0166024,0.0395197 0.0297008,0.0572874 0.122933,0.166689 0.218161,0.3525 0.282547,0.547965 0.0645512,0.195957 0.0983898,0.401831 0.0983898,0.60813l0 0.61737 0.296272 0 0 -0.61737c0,-0.209126 0.0329724,-0.413791 0.097126,-0.608563z"/>
 </g>
 <rect class="fil2" width="6.82666" height="6.82666"/>
</svg>
