<?xml version="1.0" encoding="iso-8859-1"?>
<!-- Generator: Adobe Illustrator 19.0.0, SVG Export Plug-In . SVG Version: 6.00 Build 0)  -->
<svg xmlns="http://www.w3.org/2000/svg" xmlns:xlink="http://www.w3.org/1999/xlink" version="1.1" id="Layer_1" x="0px" y="0px" viewBox="0 0 512 512" style="enable-background:new 0 0 512 512;" xml:space="preserve">
<path style="fill:#1DACE1;" d="M404.497,484.847h53.294c25.474,0,46.124-20.652,46.124-46.124v-30.667V217.712v-30.667  c0-25.472-20.65-46.124-46.124-46.124H318.763c-2.35,3.255-6.164,5.379-10.485,5.379H204.8c-4.32,0-8.135-2.125-10.485-5.379H54.208  c-25.474,0-46.124,20.652-46.124,46.124v30.667v190.343v30.667c0,25.472,20.65,46.124,46.124,46.124H376.47"/>
<path style="fill:#92C8F4;" d="M453.726,172.179h-66.829H283.363h-54.728h-12.102H58.273c-10.752,0-19.47,8.718-19.47,19.47v12.946  v32.337v48.013v12.946v31.069v12.946v39.377v40.971v12.946c0,10.752,8.718,19.47,19.47,19.47h158.261h12.102h54.728h103.533h66.829  c10.752,0,19.47-8.718,19.47-19.47v-12.946V381.28v-39.377v-12.946v-31.069v-12.946v-48.013v-32.337v-12.946  C473.196,180.897,464.478,172.179,453.726,172.179z"/>
<circle style="fill:#CDE3FD;" cx="256" cy="313.419" r="98.627"/>
<path style="fill:#EF6131;" d="M311.333,298.063H271.36V258.09c0-7.143-5.792-12.935-12.935-12.935h-4.851  c-7.143,0-12.935,5.792-12.935,12.935v39.973h-39.973c-7.143,0-12.935,5.792-12.935,12.935v4.851  c0,7.145,5.792,12.935,12.935,12.935h39.973v39.973c0,7.143,5.792,12.935,12.935,12.935h4.851c7.143,0,12.935-5.792,12.935-12.935  v-39.973h39.973c7.143,0,12.935-5.789,12.935-12.935v-4.851C324.267,303.855,318.476,298.063,311.333,298.063z"/>
<path style="fill:#51616B;" d="M291.318,113.963h16.421c7.143,0,12.935,5.792,12.935,12.935v6.467  c0,7.143-5.792,12.935-12.935,12.935H204.261c-7.143,0-12.935-5.792-12.935-12.935v-6.467c0-7.143,5.792-12.935,12.935-12.935h59.03  "/>
<path style="fill:#D6D6D6;" d="M148.211,140.92V66.385c0-3.802,3.092-6.894,6.893-6.894h201.794c3.8,0,6.893,3.092,6.893,6.894  v74.534h32.337V66.385c0-21.631-17.598-39.231-39.23-39.231H155.103c-21.631,0-39.229,17.6-39.229,39.231v74.534L148.211,140.92  L148.211,140.92z"/>
<path style="fill:#09A4CE;" d="M37.726,438.723v-30.667V217.712v-30.667c0-25.472,20.65-46.124,46.124-46.124H54.208  c-25.474,0-46.124,20.652-46.124,46.124v30.667v190.343v30.667c0,25.472,20.65,46.124,46.124,46.124h29.642  C58.377,484.847,37.726,464.193,37.726,438.723z"/>
<path style="fill:#76B8E5;" d="M68.446,435.196V422.25v-40.971v-39.377v-12.946v-31.069v-12.946V236.93v-32.337v-12.946  c0-10.752,8.718-19.47,19.47-19.47H58.274c-10.752,0-19.47,8.718-19.47,19.47v12.946v32.337v48.013v12.946v31.069v12.946v39.377  v40.971v12.946c0,10.752,8.718,19.47,19.47,19.47h29.642C77.164,454.666,68.446,445.948,68.446,435.196z"/>
<path style="fill:#B4D5EF;" d="M187.015,313.423c0-49.433,36.367-90.37,83.806-97.519c-4.834-0.729-9.783-1.108-14.821-1.108  c-54.471,0-98.627,44.156-98.627,98.627c0,54.469,44.156,98.627,98.627,98.627c5.038,0,9.987-0.38,14.821-1.108  C223.382,403.791,187.015,362.855,187.015,313.423z"/>
<path style="fill:#42555E;" d="M220.968,133.365v-6.467c0-7.143,5.792-12.935,12.935-12.935h-29.642  c-7.143,0-12.935,5.792-12.935,12.935v6.467c0,7.143,5.792,12.935,12.935,12.935h29.642  C226.76,146.299,220.968,140.508,220.968,133.365z"/>
<path style="fill:#CCCCCC;" d="M184.745,27.153h-29.642c-21.631,0-39.229,17.6-39.229,39.231v74.534h29.642V66.385  C145.516,44.754,163.113,27.153,184.745,27.153z"/>
<g>
	<path style="fill:#231F20;" d="M481.28,435.196V191.649c0-15.193-12.36-27.554-27.554-27.554H58.274   c-15.193,0-27.554,12.361-27.554,27.554v243.547c0,15.193,12.361,27.554,27.554,27.554h395.453   C468.92,462.75,481.28,450.389,481.28,435.196z M46.888,435.196V191.649c0-6.278,5.107-11.386,11.386-11.386h395.453   c6.278,0,11.386,5.107,11.386,11.386v243.547c0,6.278-5.107,11.386-11.386,11.386H58.274   C51.995,446.581,46.888,441.473,46.888,435.196z"/>
	<path style="fill:#231F20;" d="M457.792,132.835h-53.581v-66.45c0-26.09-21.225-47.315-47.314-47.315H155.103   c-26.088-0.001-47.313,21.225-47.313,47.315v66.45H54.208C24.318,132.835,0,157.154,0,187.044v251.678   c0,29.89,24.318,54.208,54.208,54.208H376.47c4.466,0,8.084-3.618,8.084-8.084s-3.618-8.084-8.084-8.084H54.208   c-20.976,0-38.04-17.064-38.04-38.04V187.044c0-20.976,17.064-38.04,38.04-38.04h61.665h32.337h42.058   c3.721,3.333,8.617,5.379,13.992,5.379h0.539h102.939h0.539c5.205,0,10.2-1.956,14.021-5.379h41.49h32.337h61.665   c20.976,0,38.04,17.064,38.04,38.04v251.678c0,20.976-17.064,38.04-38.04,38.04h-53.294c-4.466,0-8.084,3.618-8.084,8.084   s3.618,8.084,8.084,8.084h53.294c29.891,0,54.208-24.318,54.208-54.208V187.044C512,157.154,487.683,132.835,457.792,132.835z    M204.8,138.215c-1.567,0-3-0.739-3.93-2.026c-0.35-0.486-0.755-0.919-1.194-1.31c-0.16-0.48-0.266-0.983-0.266-1.514v-6.467   c0-2.675,2.176-4.851,4.851-4.851h59.03c4.466,0,8.084-3.618,8.084-8.084s-3.618-8.084-8.084-8.084h-59.029   c-11.59,0-21.019,9.429-21.019,21.019v5.939h-26.947V67.574h199.411v65.261h-26.947v-5.939c0-11.59-9.429-21.019-21.019-21.019   h-16.421c-4.466,0-8.084,3.618-8.084,8.084c0,4.466,3.618,8.084,8.084,8.084h16.421c2.674,0,4.851,2.175,4.851,4.851v6.467   c0,2.674-2.176,4.851-4.851,4.851H204.8V138.215z M371.874,132.835v-66.45c0-8.259-6.719-14.978-14.977-14.978H155.103   c-8.258,0-14.976,6.72-14.976,14.978v66.45h-16.168v-66.45c0-17.175,13.972-31.147,31.145-31.147h201.794   c17.174,0,31.146,13.973,31.146,31.147v66.45H371.874z"/>
	<path style="fill:#231F20;" d="M256,206.711c-58.841,0-106.712,47.87-106.712,106.712S197.159,420.134,256,420.134   s106.712-47.87,106.712-106.712C362.712,254.583,314.841,206.711,256,206.711z M256,403.966c-49.925,0-90.543-40.618-90.543-90.543   S206.075,222.88,256,222.88s90.543,40.618,90.543,90.543C346.543,363.349,305.925,403.966,256,403.966z"/>
	<path style="fill:#231F20;" d="M279.444,289.978v-31.887c0-11.59-9.429-21.019-21.019-21.019h-4.851   c-11.59,0-21.019,9.429-21.019,21.019v31.888h-31.888c-11.59,0-21.019,9.429-21.019,21.019v4.851   c0,11.59,9.429,21.019,21.019,21.019h31.888v31.888c0,11.59,9.429,21.019,21.019,21.019h4.851c11.59,0,21.019-9.429,21.019-21.019   v-31.888h31.888c11.59,0,21.019-9.429,21.019-21.019v-4.851c0-11.59-9.429-21.019-21.019-21.019h-31.888V289.978z M316.183,310.997   v4.851c0,2.675-2.176,4.851-4.851,4.851H271.36c-4.466,0-8.084,3.618-8.084,8.084v39.973c0,2.675-2.176,4.851-4.851,4.851h-4.851   c-2.674,0-4.851-2.175-4.851-4.851v-39.973c0-4.466-3.618-8.084-8.084-8.084h-39.973c-2.674,0-4.851-2.175-4.851-4.851v-4.851   c0-2.674,2.176-4.851,4.851-4.851h39.973c4.466,0,8.084-3.618,8.084-8.084v-39.972c0-2.675,2.176-4.851,4.851-4.851h4.851   c2.674,0,4.851,2.175,4.851,4.851v39.973c0,4.466,3.618,8.084,8.084,8.084h39.973C314.007,306.147,316.183,308.323,316.183,310.997   z"/>
</g>
<g>
</g>
<g>
</g>
<g>
</g>
<g>
</g>
<g>
</g>
<g>
</g>
<g>
</g>
<g>
</g>
<g>
</g>
<g>
</g>
<g>
</g>
<g>
</g>
<g>
</g>
<g>
</g>
<g>
</g>
</svg>
